<svg width="89" height="17" viewBox="0 0 89 17" fill="none" xmlns="http://www.w3.org/2000/svg">
<path d="M8.66434 0.3125L10.4596 5.83785H16.2693L11.5692 9.25271L13.3645 14.7781L8.66434 11.3632L3.96419 14.7781L5.75949 9.25271L1.05934 5.83785H6.86904L8.66434 0.3125Z" fill="#EAA521"/>
<path d="M26.5598 0.3125L28.3551 5.83785H34.1648L29.4647 9.25271L31.26 14.7781L26.5598 11.3632L21.8597 14.7781L23.655 9.25271L18.9548 5.83785H24.7645L26.5598 0.3125Z" fill="#EAA521"/>
<path d="M44.4554 0.3125L46.2506 5.83785H52.0604L47.3602 9.25271L49.1555 14.7781L44.4554 11.3632L39.7552 14.7781L41.5505 9.25271L36.8504 5.83785H42.6601L44.4554 0.3125Z" fill="#EAA521"/>
<path d="M62.3509 0.3125L64.1462 5.83785H69.9559L65.2557 9.25271L67.051 14.7781L62.3509 11.3632L57.6507 14.7781L59.446 9.25271L54.7459 5.83785H60.5556L62.3509 0.3125Z" fill="#EAA521"/>
<path d="M80.2464 0.3125L82.0417 5.83785H87.8514L83.1512 9.25271L84.9465 14.7781L80.2464 11.3632L75.5462 14.7781L77.3415 9.25271L72.6414 5.83785H78.4511L80.2464 0.3125Z" fill="#EAA521"/>
</svg>
