<svg width="763" height="470" viewBox="0 0 763 470" fill="none" xmlns="http://www.w3.org/2000/svg">
<path opacity="0.3" d="M196.4 250.2H226.4V301.4H196.4V349H140.8V301.4H8.4V250.2L101.6 69H160.8L68 250.2H140.8V183.8H196.4V250.2ZM370.031 354.6C335.098 354.6 307.631 341.4 287.631 315C267.898 288.067 258.031 252.733 258.031 209C258.031 165.267 267.898 130.067 287.631 103.4C307.631 76.7333 335.098 63.4 370.031 63.4C405.498 63.4 432.965 76.7333 452.431 103.4C472.165 130.067 482.031 165.267 482.031 209C482.031 252.733 472.165 288.067 452.431 315C432.965 341.4 405.498 354.6 370.031 354.6ZM427.231 209C427.231 179.133 422.298 156.333 412.431 140.6C402.831 124.867 388.698 117 370.031 117C351.365 117 337.231 124.867 327.631 140.6C318.031 156.333 313.231 179.133 313.231 209C313.231 238.867 318.031 261.667 327.631 277.4C337.231 292.867 351.365 300.6 370.031 300.6C388.698 300.6 402.831 292.733 412.431 277C422.298 261.267 427.231 238.6 427.231 209ZM704.384 250.2H734.384V301.4H704.384V349H648.784V301.4H516.384V250.2L609.584 69H668.784L575.984 250.2H648.784V183.8H704.384V250.2Z" fill="url(#paint0_linear_768_102986)"/>
<path d="M218.4 240.2H214.4V244.2H218.4V240.2ZM248.4 240.2H252.4V236.2H248.4V240.2ZM248.4 291.4V295.4H252.4V291.4H248.4ZM218.4 291.4V287.4H214.4V291.4H218.4ZM218.4 339V343H222.4V339H218.4ZM162.8 339H158.8V343H162.8V339ZM162.8 291.4H166.8V287.4H162.8V291.4ZM30.4 291.4H26.4V295.4H30.4V291.4ZM30.4 240.2L26.8429 238.37L26.4 239.232V240.2H30.4ZM123.6 59V55H121.159L120.043 57.1704L123.6 59ZM182.8 59L186.36 60.8233L189.343 55H182.8V59ZM90 240.2L86.4398 238.377L83.4574 244.2H90V240.2ZM162.8 240.2V244.2H166.8V240.2H162.8ZM162.8 173.8V169.8H158.8V173.8H162.8ZM218.4 173.8H222.4V169.8H218.4V173.8ZM218.4 244.2H248.4V236.2H218.4V244.2ZM244.4 240.2V291.4H252.4V240.2H244.4ZM248.4 287.4H218.4V295.4H248.4V287.4ZM214.4 291.4V339H222.4V291.4H214.4ZM218.4 335H162.8V343H218.4V335ZM166.8 339V291.4H158.8V339H166.8ZM162.8 287.4H30.4V295.4H162.8V287.4ZM34.4 291.4V240.2H26.4V291.4H34.4ZM33.9571 242.03L127.157 60.8296L120.043 57.1704L26.8429 238.37L33.9571 242.03ZM123.6 63H182.8V55H123.6V63ZM179.24 57.1766L86.4398 238.377L93.5602 242.023L186.36 60.8233L179.24 57.1766ZM90 244.2H162.8V236.2H90V244.2ZM166.8 240.2V173.8H158.8V240.2H166.8ZM162.8 177.8H218.4V169.8H162.8V177.8ZM214.4 173.8V240.2H222.4V173.8H214.4ZM309.631 305L306.405 307.364L306.424 307.39L306.443 307.415L309.631 305ZM309.631 93.4L306.431 91L306.424 91.0103L306.416 91.0206L309.631 93.4ZM474.431 93.4L471.201 95.7584L471.208 95.7689L471.216 95.7794L474.431 93.4ZM474.431 305L477.651 307.374L477.658 307.364L474.431 305ZM434.431 130.6L431.017 132.683L431.029 132.704L431.043 132.725L434.431 130.6ZM349.631 267.4L346.217 269.483L346.225 269.496L346.233 269.509L349.631 267.4ZM434.431 267L431.043 264.875L431.029 264.896L431.017 264.917L434.431 267ZM392.031 340.6C358.27 340.6 332.016 327.924 312.82 302.585L306.443 307.415C327.246 334.876 355.926 348.6 392.031 348.6V340.6ZM312.858 302.636C293.763 276.574 284.031 242.146 284.031 199H276.031C276.031 243.321 286.033 279.56 306.405 307.364L312.858 302.636ZM284.031 199C284.031 155.852 293.764 121.567 312.847 95.7794L306.416 91.0206C286.032 118.566 276.031 154.681 276.031 199H284.031ZM312.831 95.8C332.034 70.1958 358.286 57.4 392.031 57.4V49.4C355.91 49.4 327.228 63.2709 306.431 91L312.831 95.8ZM392.031 57.4C426.331 57.4 452.55 70.2096 471.201 95.7584L477.662 91.0415C457.379 63.257 428.664 49.4 392.031 49.4V57.4ZM471.216 95.7794C490.299 121.567 500.031 155.852 500.031 199H508.031C508.031 154.681 498.03 118.566 477.647 91.0206L471.216 95.7794ZM500.031 199C500.031 242.146 490.3 276.574 471.205 302.636L477.658 307.364C498.029 279.56 508.031 243.321 508.031 199H500.031ZM471.212 302.626C452.568 327.911 426.348 340.6 392.031 340.6V348.6C428.648 348.6 457.361 334.889 477.651 307.374L471.212 302.626ZM453.231 199C453.231 168.796 448.26 145.123 437.82 128.475L431.043 132.725C440.335 147.544 445.231 169.47 445.231 199H453.231ZM437.846 128.517C427.508 111.574 412.07 103 392.031 103V111C409.325 111 422.154 118.159 431.017 132.683L437.846 128.517ZM392.031 103C371.992 103 356.554 111.574 346.217 128.517L353.046 132.683C361.908 118.159 374.737 111 392.031 111V103ZM346.217 128.517C336.065 145.154 331.231 168.81 331.231 199H339.231C339.231 169.457 343.998 147.512 353.046 132.683L346.217 128.517ZM331.231 199C331.231 229.19 336.065 252.846 346.217 269.483L353.046 265.317C343.998 250.488 339.231 228.543 339.231 199H331.231ZM346.233 269.509C356.585 286.188 372.024 294.6 392.031 294.6V286.6C374.705 286.6 361.878 279.546 353.03 265.291L346.233 269.509ZM392.031 294.6C412.07 294.6 427.508 286.026 437.846 269.083L431.017 264.917C422.154 279.441 409.325 286.6 392.031 286.6V294.6ZM437.82 269.125C448.258 252.481 453.231 228.945 453.231 199H445.231C445.231 228.255 440.338 250.052 431.043 264.875L437.82 269.125ZM726.384 240.2H722.384V244.2H726.384V240.2ZM756.384 240.2H760.384V236.2H756.384V240.2ZM756.384 291.4V295.4H760.384V291.4H756.384ZM726.384 291.4V287.4H722.384V291.4H726.384ZM726.384 339V343H730.384V339H726.384ZM670.784 339H666.784V343H670.784V339ZM670.784 291.4H674.784V287.4H670.784V291.4ZM538.384 291.4H534.384V295.4H538.384V291.4ZM538.384 240.2L534.827 238.37L534.384 239.232V240.2H538.384ZM631.584 59V55H629.144L628.027 57.1704L631.584 59ZM690.784 59L694.345 60.8233L697.327 55H690.784V59ZM597.984 240.2L594.424 238.377L591.442 244.2H597.984V240.2ZM670.784 240.2V244.2H674.784V240.2H670.784ZM670.784 173.8V169.8H666.784V173.8H670.784ZM726.384 173.8H730.384V169.8H726.384V173.8ZM726.384 244.2H756.384V236.2H726.384V244.2ZM752.384 240.2V291.4H760.384V240.2H752.384ZM756.384 287.4H726.384V295.4H756.384V287.4ZM722.384 291.4V339H730.384V291.4H722.384ZM726.384 335H670.784V343H726.384V335ZM674.784 339V291.4H666.784V339H674.784ZM670.784 287.4H538.384V295.4H670.784V287.4ZM542.384 291.4V240.2H534.384V291.4H542.384ZM541.941 242.03L635.141 60.8296L628.027 57.1704L534.827 238.37L541.941 242.03ZM631.584 63H690.784V55H631.584V63ZM687.224 57.1766L594.424 238.377L601.545 242.023L694.345 60.8233L687.224 57.1766ZM597.984 244.2H670.784V236.2H597.984V244.2ZM674.784 240.2V173.8H666.784V240.2H674.784ZM670.784 177.8H726.384V169.8H670.784V177.8ZM722.384 173.8V240.2H730.384V173.8H722.384Z" fill="url(#paint1_linear_768_102986)"/>
<defs>
<linearGradient id="paint0_linear_768_102986" x1="-14.9689" y1="240.547" x2="755.969" y2="240.547" gradientUnits="userSpaceOnUse">
<stop stop-color="#592ED2"/>
<stop offset="1" stop-color="#FF6065"/>
</linearGradient>
<linearGradient id="paint1_linear_768_102986" x1="7.03108" y1="230.547" x2="777.969" y2="230.547" gradientUnits="userSpaceOnUse">
<stop stop-color="#592ED2"/>
<stop offset="1" stop-color="#FF6065"/>
</linearGradient>
</defs>
</svg>
