<svg width="765" height="470" viewBox="0 0 765 470" fill="none" xmlns="http://www.w3.org/2000/svg">
<path d="M105.2 161L101.21 160.715L100.904 165H105.2V161ZM202 185.4L199.329 188.378L199.352 188.398L199.375 188.418L202 185.4ZM200.4 320.2L197.835 317.131L197.814 317.148L197.793 317.166L200.4 320.2ZM69.2 329.4L67.1185 332.816L67.1497 332.835L67.1812 332.853L69.2 329.4ZM32 284.6L29.9809 281.147L27.0135 282.882L28.2826 286.077L32 284.6ZM79.2 257L83.0338 255.859L81.5801 250.975L77.1809 253.547L79.2 257ZM162.4 280.6L165.012 283.63L165.02 283.623L162.4 280.6ZM162.8 225L165.47 222.022H165.47L162.8 225ZM46.4 214.6L42.4103 214.313L42.1017 218.6H46.4V214.6ZM57.6 59V55H53.8776L53.6103 58.7128L57.6 59ZM216.4 59H220.4V55H216.4V59ZM216.4 110.6V114.6H220.4V110.6H216.4ZM108.8 110.6V106.6H105.076L104.81 110.315L108.8 110.6ZM105.2 165H134V157H105.2V165ZM134 165C160.338 165 182.017 172.847 199.329 188.378L204.671 182.422C185.717 165.419 162.062 157 134 157V165ZM199.375 188.418C216.741 203.519 225.6 224.727 225.6 252.6H233.6C233.6 222.873 224.059 199.281 204.625 182.382L199.375 188.418ZM225.6 252.6C225.6 280.395 216.263 301.732 197.835 317.131L202.965 323.269C223.471 306.135 233.6 282.405 233.6 252.6H225.6ZM197.793 317.166C179.682 332.727 157.045 340.6 129.6 340.6V348.6C158.688 348.6 183.252 340.207 203.007 323.234L197.793 317.166ZM129.6 340.6C107.274 340.6 87.8567 335.674 71.2188 325.947L67.1812 332.853C85.21 343.393 106.06 348.6 129.6 348.6V340.6ZM71.2815 325.984C54.9933 316.059 43.1468 301.825 35.7174 283.123L28.2826 286.077C36.3199 306.309 49.2734 321.941 67.1185 332.816L71.2815 325.984ZM34.0191 288.053L81.2191 260.453L77.1809 253.547L29.9809 281.147L34.0191 288.053ZM75.3662 258.141C78.9218 270.088 85.2841 279.33 94.5812 285.528C103.825 291.69 115.602 294.6 129.6 294.6V286.6C116.665 286.6 106.575 283.91 99.0188 278.872C91.5159 273.87 86.1449 266.312 83.0338 255.859L75.3662 258.141ZM129.6 294.6C144.325 294.6 156.315 291.126 165.012 283.63L159.788 277.57C153.018 283.407 143.142 286.6 129.6 286.6V294.6ZM165.02 283.623C173.998 275.842 178.4 265.352 178.4 252.6H170.4C170.4 263.314 166.802 271.491 159.78 277.577L165.02 283.623ZM178.4 252.6C178.4 240.129 174.143 229.798 165.47 222.022L160.13 227.978C166.923 234.069 170.4 242.138 170.4 252.6H178.4ZM165.47 222.022C156.814 214.261 145.231 210.6 131.2 210.6V218.6C143.836 218.6 153.32 221.873 160.13 227.978L165.47 222.022ZM131.2 210.6H46.4V218.6H131.2V210.6ZM50.3897 214.887L61.5897 59.2872L53.6103 58.7128L42.4103 214.313L50.3897 214.887ZM57.6 63H216.4V55H57.6V63ZM212.4 59V110.6H220.4V59H212.4ZM216.4 106.6H108.8V114.6H216.4V106.6ZM104.81 110.315L101.21 160.715L109.19 161.285L112.79 110.885L104.81 110.315ZM292.053 305L288.826 307.364L288.845 307.39L288.865 307.415L292.053 305ZM292.053 93.4L288.853 91L288.845 91.0103L288.838 91.0206L292.053 93.4ZM456.853 93.4L453.622 95.7584L453.63 95.7689L453.638 95.7794L456.853 93.4ZM456.853 305L460.073 307.374L460.08 307.364L456.853 305ZM416.853 130.6L413.439 132.683L413.451 132.704L413.464 132.725L416.853 130.6ZM332.053 267.4L328.639 269.483L328.647 269.496L328.655 269.509L332.053 267.4ZM416.853 267L413.464 264.875L413.451 264.896L413.439 264.917L416.853 267ZM374.453 340.6C340.692 340.6 314.438 327.924 295.241 302.585L288.865 307.415C309.668 334.876 338.347 348.6 374.453 348.6V340.6ZM295.28 302.636C276.185 276.574 266.453 242.146 266.453 199H258.453C258.453 243.321 268.455 279.56 288.826 307.364L295.28 302.636ZM266.453 199C266.453 155.852 276.185 121.567 295.268 95.7794L288.838 91.0206C268.454 118.566 258.453 154.681 258.453 199H266.453ZM295.253 95.8C314.456 70.1958 340.708 57.4 374.453 57.4V49.4C338.331 49.4 309.65 63.2709 288.853 91L295.253 95.8ZM374.453 57.4C408.753 57.4 434.972 70.2096 453.622 95.7584L460.084 91.0415C439.801 63.257 411.086 49.4 374.453 49.4V57.4ZM453.638 95.7794C472.721 121.567 482.453 155.852 482.453 199H490.453C490.453 154.681 480.452 118.566 460.069 91.0206L453.638 95.7794ZM482.453 199C482.453 242.146 472.722 276.574 453.626 302.636L460.08 307.364C480.451 279.56 490.453 243.321 490.453 199H482.453ZM453.634 302.626C434.99 327.911 408.769 340.6 374.453 340.6V348.6C411.07 348.6 439.783 334.889 460.073 307.374L453.634 302.626ZM435.653 199C435.653 168.796 430.682 145.123 420.242 128.475L413.464 132.725C422.757 147.544 427.653 169.47 427.653 199H435.653ZM420.268 128.517C409.93 111.574 394.492 103 374.453 103V111C391.747 111 404.576 118.159 413.439 132.683L420.268 128.517ZM374.453 103C354.414 103 338.976 111.574 328.639 128.517L335.468 132.683C344.33 118.159 357.159 111 374.453 111V103ZM328.639 128.517C318.487 145.154 313.653 168.81 313.653 199H321.653C321.653 169.457 326.419 147.512 335.468 132.683L328.639 128.517ZM313.653 199C313.653 229.19 318.487 252.846 328.639 269.483L335.468 265.317C326.419 250.488 321.653 228.543 321.653 199H313.653ZM328.655 269.509C339.007 286.188 354.446 294.6 374.453 294.6V286.6C357.127 286.6 344.3 279.546 335.452 265.291L328.655 269.509ZM374.453 294.6C394.492 294.6 409.93 286.026 420.268 269.083L413.439 264.917C404.576 279.441 391.747 286.6 374.453 286.6V294.6ZM420.242 269.125C430.68 252.481 435.653 228.945 435.653 199H427.653C427.653 228.255 422.76 250.052 413.464 264.875L420.242 269.125ZM556.006 305L552.78 307.364L552.799 307.39L552.818 307.415L556.006 305ZM556.006 93.4L552.806 91L552.799 91.0103L552.791 91.0206L556.006 93.4ZM720.806 93.4L717.576 95.7584L717.583 95.7689L717.591 95.7794L720.806 93.4ZM720.806 305L724.026 307.374L724.033 307.364L720.806 305ZM680.806 130.6L677.392 132.683L677.404 132.704L677.417 132.725L680.806 130.6ZM596.006 267.4L592.592 269.483L592.6 269.496L592.608 269.509L596.006 267.4ZM680.806 267L677.417 264.875L677.404 264.896L677.392 264.917L680.806 267ZM638.406 340.6C604.645 340.6 578.391 327.924 559.195 302.585L552.818 307.415C573.621 334.876 602.301 348.6 638.406 348.6V340.6ZM559.233 302.636C540.138 276.574 530.406 242.146 530.406 199H522.406C522.406 243.321 532.408 279.56 552.78 307.364L559.233 302.636ZM530.406 199C530.406 155.852 540.139 121.567 559.222 95.7794L552.791 91.0206C532.407 118.566 522.406 154.681 522.406 199H530.406ZM559.206 95.8C578.409 70.1958 604.661 57.4 638.406 57.4V49.4C602.285 49.4 573.603 63.2709 552.806 91L559.206 95.8ZM638.406 57.4C672.706 57.4 698.925 70.2096 717.576 95.7584L724.037 91.0415C703.754 63.257 675.039 49.4 638.406 49.4V57.4ZM717.591 95.7794C736.674 121.567 746.406 155.852 746.406 199H754.406C754.406 154.681 744.405 118.566 724.022 91.0206L717.591 95.7794ZM746.406 199C746.406 242.146 736.675 276.574 717.58 302.636L724.033 307.364C744.404 279.56 754.406 243.321 754.406 199H746.406ZM717.587 302.626C698.943 327.911 672.723 340.6 638.406 340.6V348.6C675.023 348.6 703.736 334.889 724.026 307.374L717.587 302.626ZM699.606 199C699.606 168.796 694.635 145.123 684.195 128.475L677.417 132.725C686.71 147.544 691.606 169.47 691.606 199H699.606ZM684.221 128.517C673.883 111.574 658.445 103 638.406 103V111C655.7 111 668.529 118.159 677.392 132.683L684.221 128.517ZM638.406 103C618.367 103 602.929 111.574 592.592 128.517L599.421 132.683C608.283 118.159 621.112 111 638.406 111V103ZM592.592 128.517C582.44 145.154 577.606 168.81 577.606 199H585.606C585.606 169.457 590.373 147.512 599.421 132.683L592.592 128.517ZM577.606 199C577.606 229.19 582.44 252.846 592.592 269.483L599.421 265.317C590.373 250.488 585.606 228.543 585.606 199H577.606ZM592.608 269.509C602.96 286.188 618.399 294.6 638.406 294.6V286.6C621.08 286.6 608.253 279.546 599.405 265.291L592.608 269.509ZM638.406 294.6C658.445 294.6 673.883 286.026 684.221 269.083L677.392 264.917C668.529 279.441 655.7 286.6 638.406 286.6V294.6ZM684.195 269.125C694.633 252.481 699.606 228.945 699.606 199H691.606C691.606 228.255 686.713 250.052 677.417 264.875L684.195 269.125Z" fill="url(#paint0_linear_768_108811)"/>
<path opacity="0.3" d="M83.2 171H112C139.2 171 161.867 179.133 180 195.4C198.4 211.4 207.6 233.8 207.6 262.6C207.6 291.4 197.867 313.933 178.4 330.2C159.467 346.467 135.867 354.6 107.6 354.6C84.6667 354.6 64.5333 349.533 47.2 339.4C30.1333 329 17.7333 314.067 10 294.6L57.2 267C63.8667 289.4 80.6667 300.6 107.6 300.6C121.733 300.6 132.667 297.267 140.4 290.6C148.4 283.667 152.4 274.333 152.4 262.6C152.4 251.133 148.533 241.933 140.8 235C133.067 228.067 122.533 224.6 109.2 224.6H24.4L35.6 69H194.4V120.6H86.8L83.2 171ZM352.453 354.6C317.52 354.6 290.053 341.4 270.053 315C250.32 288.067 240.453 252.733 240.453 209C240.453 165.267 250.32 130.067 270.053 103.4C290.053 76.7333 317.52 63.4 352.453 63.4C387.92 63.4 415.386 76.7333 434.853 103.4C454.586 130.067 464.453 165.267 464.453 209C464.453 252.733 454.586 288.067 434.853 315C415.386 341.4 387.92 354.6 352.453 354.6ZM409.653 209C409.653 179.133 404.72 156.333 394.853 140.6C385.253 124.867 371.12 117 352.453 117C333.786 117 319.653 124.867 310.053 140.6C300.453 156.333 295.653 179.133 295.653 209C295.653 238.867 300.453 261.667 310.053 277.4C319.653 292.867 333.786 300.6 352.453 300.6C371.12 300.6 385.253 292.733 394.853 277C404.72 261.267 409.653 238.6 409.653 209ZM616.406 354.6C581.473 354.6 554.006 341.4 534.006 315C514.273 288.067 504.406 252.733 504.406 209C504.406 165.267 514.273 130.067 534.006 103.4C554.006 76.7333 581.473 63.4 616.406 63.4C651.873 63.4 679.34 76.7333 698.806 103.4C718.54 130.067 728.406 165.267 728.406 209C728.406 252.733 718.54 288.067 698.806 315C679.34 341.4 651.873 354.6 616.406 354.6ZM673.606 209C673.606 179.133 668.673 156.333 658.806 140.6C649.206 124.867 635.073 117 616.406 117C597.74 117 583.606 124.867 574.006 140.6C564.406 156.333 559.606 179.133 559.606 209C559.606 238.867 564.406 261.667 574.006 277.4C583.606 292.867 597.74 300.6 616.406 300.6C635.073 300.6 649.206 292.733 658.806 277C668.673 261.267 673.606 238.6 673.606 209Z" fill="url(#paint1_linear_768_108811)"/>
<defs>
<linearGradient id="paint0_linear_768_108811" x1="6.99068" y1="230.547" x2="780.009" y2="230.547" gradientUnits="userSpaceOnUse">
<stop stop-color="#592ED2"/>
<stop offset="1" stop-color="#FF6065"/>
</linearGradient>
<linearGradient id="paint1_linear_768_108811" x1="-15.0093" y1="240.547" x2="758.009" y2="240.547" gradientUnits="userSpaceOnUse">
<stop stop-color="#592ED2"/>
<stop offset="1" stop-color="#FF6065"/>
</linearGradient>
</defs>
</svg>
