<svg width="189" height="50" viewBox="0 0 189 50" fill="none" xmlns="http://www.w3.org/2000/svg">
<path fill-rule="evenodd" clip-rule="evenodd" d="M50.7747 29.0227L42.0335 44.0366C40.7467 46.2469 38.382 47.6064 35.8244 47.6064H18.2053C15.6478 47.6064 13.283 46.2469 11.9962 44.0366L3.25508 29.0226C1.95421 26.7882 1.95421 24.0272 3.25509 21.7928L11.9962 6.77879C13.2831 4.56855 15.6478 3.20899 18.2053 3.20899L35.8244 3.20899C38.382 3.20899 40.7467 4.56856 42.0335 6.7788L50.7747 21.7928C52.0756 24.0272 52.0756 26.7882 50.7747 29.0227ZM52.6956 20.6744C54.399 23.6001 54.399 27.2153 52.6956 30.141L43.9545 45.155C42.2696 48.049 39.1732 49.8292 35.8244 49.8292H18.2053C14.8565 49.8292 11.7602 48.049 10.0753 45.155L1.33414 30.141C-0.369196 27.2153 -0.369192 23.6001 1.33415 20.6744L10.0753 5.66042C11.7602 2.76638 14.8565 0.986206 18.2053 0.986206H35.8244C39.1732 0.986206 42.2696 2.76639 43.9545 5.66042L52.6956 20.6744ZM31.9374 25.4257C31.9374 28.0035 29.8477 30.0933 27.2699 30.0933C24.6921 30.0933 22.6023 28.0035 22.6023 25.4257C22.6023 22.8479 24.6921 20.7582 27.2699 20.7582C29.8477 20.7582 31.9374 22.8479 31.9374 25.4257ZM34.16 25.4257C34.16 29.2311 31.0752 32.3159 27.2699 32.3159C23.4645 32.3159 20.3797 29.2311 20.3797 25.4257C20.3797 21.6204 23.4645 18.5356 27.2699 18.5356C31.0752 18.5356 34.16 21.6204 34.16 25.4257ZM15.0185 7.89429L12.7966 11.7697L22.3539 6.21308H17.9203C16.7217 6.21308 15.6147 6.85444 15.0185 7.89429ZM8.09071 31.0135L5.87603 27.1618C5.2814 26.1276 5.28252 24.8551 5.87898 23.822L8.11022 19.9574L8.09071 31.0135ZM48.2401 27.1618L46.0254 31.0135L46.0059 19.9574L48.2371 23.822C48.8336 24.8551 48.8347 26.1276 48.2401 27.1618ZM13.2705 38.7941L15.4829 42.4986C16.0866 43.5094 17.1773 44.1284 18.3547 44.1284H22.8279L13.2705 38.7941ZM39.0897 7.89429L41.3116 11.7697L31.7543 6.21308H36.1879C37.3866 6.21308 38.4936 6.85444 39.0897 7.89429ZM41.3116 38.7941L39.0992 42.4986C38.4955 43.5094 37.4049 44.1284 36.2275 44.1284H31.7543L41.3116 38.7941ZM40.8145 18.5632C40.8145 19.3637 40.1655 20.0127 39.365 20.0127C38.5645 20.0127 37.9155 19.3637 37.9155 18.5632C37.9155 17.7627 38.5645 17.1137 39.365 17.1137C40.1655 17.1137 40.8145 17.7627 40.8145 18.5632ZM27.0425 13.3775C27.843 13.3775 28.492 12.7285 28.492 11.928C28.492 11.1275 27.843 10.4785 27.0425 10.4785C26.242 10.4785 25.5931 11.1275 25.5931 11.928C25.5931 12.7285 26.242 13.3775 27.0425 13.3775ZM21.3829 13.8238C21.3829 14.6243 20.7339 15.2732 19.9334 15.2732C19.1329 15.2732 18.4839 14.6243 18.4839 13.8238C18.4839 13.0233 19.1329 12.3743 19.9334 12.3743C20.7339 12.3743 21.3829 13.0233 21.3829 13.8238ZM27.0425 40.3921C27.843 40.3921 28.492 39.7432 28.492 38.9427C28.492 38.1422 27.843 37.4932 27.0425 37.4932C26.242 37.4932 25.5931 38.1422 25.5931 38.9427C25.5931 39.7432 26.242 40.3921 27.0425 40.3921ZM40.8145 31.8336C40.8145 32.6341 40.1655 33.283 39.365 33.283C38.5645 33.283 37.9155 32.6341 37.9155 31.8336C37.9155 31.033 38.5645 30.3841 39.365 30.3841C40.1655 30.3841 40.8145 31.033 40.8145 31.8336ZM15.194 20.0127C15.9945 20.0127 16.6434 19.3637 16.6434 18.5632C16.6434 17.7627 15.9945 17.1137 15.194 17.1137C14.3935 17.1137 13.7445 17.7627 13.7445 18.5632C13.7445 19.3637 14.3935 20.0127 15.194 20.0127ZM14.7477 25.1984C14.7477 25.9989 14.0987 26.6478 13.2982 26.6478C12.4977 26.6478 11.8488 25.9989 11.8488 25.1984C11.8488 24.3979 12.4977 23.7489 13.2982 23.7489C14.0987 23.7489 14.7477 24.3979 14.7477 25.1984ZM15.194 33.283C15.9945 33.283 16.6434 32.6341 16.6434 31.8336C16.6434 31.033 15.9945 30.3841 15.194 30.3841C14.3935 30.3841 13.7445 31.033 13.7445 31.8336C13.7445 32.6341 14.3935 33.283 15.194 33.283ZM21.3829 36.573C21.3829 37.3735 20.7339 38.0224 19.9334 38.0224C19.1329 38.0224 18.4839 37.3735 18.4839 36.573C18.4839 35.7725 19.1329 35.1235 19.9334 35.1235C20.7339 35.1235 21.3829 35.7725 21.3829 36.573ZM34.1516 38.0224C34.9522 38.0224 35.6011 37.3735 35.6011 36.573C35.6011 35.7725 34.9522 35.1235 34.1516 35.1235C33.3511 35.1235 32.7022 35.7725 32.7022 36.573C32.7022 37.3735 33.3511 38.0224 34.1516 38.0224ZM35.6011 14.2977C35.6011 15.0982 34.9522 15.7472 34.1516 15.7472C33.3511 15.7472 32.7022 15.0982 32.7022 14.2977C32.7022 13.4972 33.3511 12.8483 34.1516 12.8483C34.9522 12.8483 35.6011 13.4972 35.6011 14.2977ZM40.7868 26.6478C41.5873 26.6478 42.2363 25.9989 42.2363 25.1984C42.2363 24.3979 41.5873 23.7489 40.7868 23.7489C39.9863 23.7489 39.3374 24.3979 39.3374 25.1984C39.3374 25.9989 39.9863 26.6478 40.7868 26.6478Z" fill="url(#paint0_linear_882_18621)"/>
<mask id="mask0_882_18621" style="mask-type:alpha" maskUnits="userSpaceOnUse" x="68" y="18" width="121" height="15">
<path d="M79.5225 19.8502V30.9655C79.5225 31.8112 78.9184 32.4153 78.1935 32.4153C77.4686 32.4153 76.8645 31.8112 76.8645 30.9655V23.4747L70.4611 31.6904C70.0987 32.0528 69.7362 32.2945 69.3738 32.2945C68.6489 32.2945 68.0448 31.6904 68.0448 30.9655V19.8502C67.924 19.0045 68.528 18.4004 69.2529 18.4004C70.0987 18.4004 70.5819 19.0045 70.5819 19.8502V27.3409L76.7437 19.2461C77.2269 18.7628 77.5894 18.4004 78.1935 18.4004C78.9184 18.4004 79.5225 19.0045 79.5225 19.8502Z" fill="#DBDBDB"/>
<path d="M82.543 30.8446V19.8502C82.543 19.0045 83.1471 18.4004 83.872 18.4004C84.7177 18.4004 85.201 19.0045 85.201 19.8502V23.8372H91.121V19.8502C91.121 19.0045 91.7251 18.4004 92.45 18.4004C93.2958 18.4004 93.779 19.0045 93.779 19.8502V30.9655C93.779 31.8112 93.175 32.4153 92.45 32.4153C91.6043 32.4153 91.121 31.8112 91.121 30.9655V26.2536H85.201V30.8446C85.201 31.6904 84.5969 32.2945 83.872 32.2945C83.1471 32.2945 82.543 31.6904 82.543 30.8446Z" fill="#DBDBDB"/>
<path d="M100.062 30.9658V21.1795H96.9211C96.1962 21.1795 95.7129 20.5755 95.7129 19.9714C95.7129 19.2465 96.317 18.7632 96.9211 18.7632H106.103C106.828 18.7632 107.311 19.2465 107.311 19.9714C107.311 20.6963 106.707 21.1795 106.103 21.1795H102.841V30.9658C102.841 31.8115 102.237 32.4156 101.512 32.4156C100.666 32.2948 100.062 31.6907 100.062 30.9658Z" fill="#DBDBDB"/>
<path d="M109.003 30.7234V19.9706C109.003 19.2457 109.607 18.6416 110.332 18.6416H116.856C117.581 18.6416 118.064 19.1249 118.064 19.8498C118.064 20.5747 117.46 21.058 116.856 21.058H111.661V23.8368H115.165C115.89 23.8368 116.373 24.32 116.373 25.045C116.373 25.649 115.89 26.2531 115.165 26.2531H111.661V29.636H117.098C117.823 29.636 118.306 30.2401 118.306 30.8442C118.306 31.5691 117.702 32.0524 117.098 32.0524H110.332C109.486 32.0524 109.003 31.4483 109.003 30.7234Z" fill="#DBDBDB"/>
<path d="M133.408 20.0914V30.965C133.408 31.8108 132.804 32.4149 132.079 32.4149C131.233 32.4149 130.75 31.8108 130.75 30.965V21.1788H127.367C127.246 27.2197 126.159 30.6026 123.863 31.8108C123.38 32.1732 122.897 32.294 122.413 32.294C121.688 32.294 121.205 31.8108 121.205 31.0859C121.205 30.4818 121.568 29.9985 122.051 29.8777C123.984 29.2736 124.709 26.7364 124.709 21.1788V20.0914C124.709 19.2457 125.313 18.6416 126.159 18.6416H132.079C132.804 18.6416 133.408 19.2457 133.408 20.0914Z" fill="#DBDBDB"/>
<path d="M136.428 30.965V20.0914C136.428 19.2457 137.032 18.6416 137.878 18.6416H146.093C146.939 18.6416 147.543 19.2457 147.543 20.0914V30.965C147.543 31.8108 146.939 32.4149 146.214 32.4149C145.489 32.4149 144.885 31.8108 144.885 30.965V21.1788H139.448V30.965C139.448 31.8108 138.844 32.4149 138.119 32.4149C137.032 32.294 136.428 31.6899 136.428 30.965Z" fill="#DBDBDB"/>
<path d="M152.617 25.4078C152.617 27.945 154.43 29.8781 156.967 29.8781C159.504 29.8781 161.316 28.0658 161.316 25.4078C161.316 22.7498 159.504 20.9376 156.967 20.9376C154.309 20.9376 152.617 22.7498 152.617 25.4078ZM163.974 25.4078C163.974 29.274 160.833 32.4153 156.846 32.4153C152.859 32.4153 149.718 29.274 149.718 25.4078C149.718 21.5417 152.859 18.4004 156.846 18.4004C160.833 18.4004 163.974 21.4208 163.974 25.4078Z" fill="#DBDBDB"/>
<path d="M171.345 24.9241C172.553 24.9241 173.399 24.1992 173.399 22.9911C173.399 21.7829 172.674 21.058 171.345 21.058H169.049V24.9241H171.345ZM166.271 30.965V20.0914C166.271 19.2457 166.875 18.6416 167.72 18.6416H171.345C174.244 18.6416 176.178 20.3331 176.178 22.9911C176.178 25.5282 174.244 27.3405 171.345 27.3405H169.049V30.965C169.049 31.8108 168.445 32.4149 167.72 32.4149C166.875 32.294 166.271 31.6899 166.271 30.965Z" fill="#DBDBDB"/>
<path d="M181.373 30.9658V21.1795H178.232C177.507 21.1795 177.023 20.5755 177.023 19.9714C177.023 19.2465 177.628 18.7632 178.232 18.7632H187.414C188.139 18.7632 188.622 19.2465 188.622 19.9714C188.622 20.6963 188.018 21.1795 187.414 21.1795H184.273V30.9658C184.273 31.8115 183.668 32.4156 182.944 32.4156C181.977 32.2948 181.373 31.6907 181.373 30.9658Z" fill="#DBDBDB"/>
</mask>
<g mask="url(#mask0_882_18621)">
<rect x="60.1904" y="13.7427" width="134.63" height="24.5339" fill="url(#paint1_linear_882_18621)"/>
</g>
<defs>
<linearGradient id="paint0_linear_882_18621" x1="-1.03252" y1="25.4658" x2="55.0623" y2="25.4658" gradientUnits="userSpaceOnUse">
<stop stop-color="#8C97FF"/>
<stop offset="1" stop-color="#EC6969"/>
</linearGradient>
<linearGradient id="paint1_linear_882_18621" x1="57.4708" y1="26.0388" x2="197.54" y2="26.0388" gradientUnits="userSpaceOnUse">
<stop stop-color="#8C97FF"/>
<stop offset="1" stop-color="#EC6969"/>
</linearGradient>
</defs>
</svg>
