<svg width="600" height="600" viewBox="0 0 600 600" fill="none" xmlns="http://www.w3.org/2000/svg">
<mask id="mask0_1105_47635" style="mask-type:alpha" maskUnits="userSpaceOnUse" x="40" y="18" width="520" height="520">
<path d="M162.387 538C142.29 538.002 123.625 534.21 106.753 526.463C60.6942 505.312 35.9423 456.377 40.5453 395.561C46.1863 321.049 97.9293 224.804 172.365 150.366C246.809 75.9286 343.054 24.1858 417.563 18.5448C478.345 13.9441 527.312 38.6937 548.465 84.7548C584.25 162.693 535.639 279.204 418.421 396.421C326.573 488.269 235.15 537.996 162.387 538ZM417.645 19.6408L417.726 20.7369C343.711 26.3393 248.011 77.8312 173.918 151.919C99.8296 226.007 48.3397 321.709 42.733 395.729C38.203 455.59 62.4788 503.716 107.671 524.468C184.745 559.856 300.324 511.414 416.868 394.869C533.408 278.327 581.856 162.74 546.466 85.6728C525.716 40.4825 477.607 16.2026 417.726 20.7369L417.645 19.6408Z" fill="#231F20"/>
<path d="M159.778 501.123C142.164 501.123 125.962 497.968 111.553 491.636C71.9196 474.222 50.4408 434.812 52.6243 383.515C55.5113 315.686 104.603 222.961 174.779 152.783C244.96 82.6074 337.683 33.5157 405.517 30.6244C456.891 28.4752 496.223 49.9196 513.635 89.5525C527.822 121.837 526.071 163.158 508.578 209.05C488.721 261.134 450.203 315.991 394.097 372.098C337.992 428.204 283.134 466.721 231.048 486.576C205.64 496.263 181.626 501.123 159.778 501.123ZM405.611 32.8207C338.288 35.6884 246.148 84.5207 176.332 154.336C106.516 224.152 57.6819 316.291 54.8207 383.61C52.6758 433.954 73.6741 472.594 112.436 489.624C182.471 520.401 287.197 475.891 392.544 370.545C497.888 265.202 542.403 160.488 511.624 90.4362C494.593 51.6763 455.977 30.6716 405.611 32.8207Z" fill="#231F20"/>
<path d="M158.94 468.518C143.745 468.518 129.761 465.919 117.282 460.698C83.5686 446.596 64.4063 414.075 64.7066 371.476C65.1484 309.095 110.401 222.227 177.313 155.316C244.228 88.4004 331.096 43.1479 393.473 42.7103L393.482 43.8085L393.473 42.7103C393.804 42.7082 394.13 42.7061 394.456 42.7061C436.577 42.7061 468.703 61.834 482.696 95.2875C494.943 124.554 492.772 162.169 476.42 204.062C457.987 251.295 423.171 300.712 372.942 350.943C322.709 401.174 273.292 435.991 226.057 454.424C202.022 463.804 179.389 468.516 158.94 468.518ZM394.456 44.9024C394.134 44.9024 393.812 44.9045 393.49 44.9067C331.649 45.34 245.4 90.335 178.866 156.869C112.331 223.398 67.3405 309.65 66.903 371.493C66.607 413.155 85.2802 444.931 118.131 458.673C167.18 479.202 259.5 461.28 371.39 349.39C483.271 237.505 501.202 145.207 480.671 96.1348C467.034 63.5392 435.642 44.9024 394.456 44.9024Z" fill="#231F20"/>
<path d="M159.148 439.073C145.593 439.073 133.715 436.832 123.754 432.888C94.5877 421.337 77.9092 395.252 76.7895 359.432C75.0093 302.422 116.474 221.455 179.967 157.96C243.459 94.4636 324.518 53.0119 381.439 54.7878C417.259 55.9074 443.345 72.5838 454.893 101.748C472.734 146.801 455.699 231.04 354.371 332.366C275.452 411.284 206.893 439.073 159.148 439.073ZM377.844 56.9284C321.619 56.9284 243.309 97.7238 181.52 159.513C118.43 222.607 77.2228 302.919 78.9859 359.364C80.0755 394.252 96.2607 419.639 124.56 430.846C168.963 448.434 252.249 431.384 352.818 330.813C453.391 230.24 470.439 146.959 452.851 102.556C441.646 74.2589 416.259 58.0738 381.371 56.9842C380.208 56.9477 379.033 56.9284 377.844 56.9284Z" fill="#231F20"/>
<path d="M161.067 412.635C149.536 412.635 139.386 410.833 130.802 407.635C105.913 398.367 91.0192 376.974 88.8743 347.395C85.1165 295.658 122.841 220.648 182.743 160.742C242.649 100.84 317.591 63.1286 369.398 66.8692C398.976 69.0184 420.369 83.9081 429.639 108.799C444.778 149.46 428.64 225.225 337.933 315.929C266.384 387.48 204.127 412.635 161.067 412.635ZM362.445 68.8211C312.242 68.8211 240.273 106.322 184.296 162.294C125.745 220.847 87.4072 296.898 91.0621 347.236C93.1469 375.908 107.53 396.628 131.566 405.578C171.611 420.487 246.416 404.341 336.38 314.376C426.349 224.408 442.483 149.586 427.58 109.565C418.628 85.5274 397.908 71.1418 369.235 69.0613C367.022 68.9004 364.757 68.8211 362.445 68.8211Z" fill="#231F20"/>
<path d="M163.875 388.456C154.197 388.456 145.63 387.033 138.316 384.494C117.078 377.118 103.809 359.671 100.957 335.366C95.5731 289.528 130.406 218.923 185.667 163.667C240.914 108.409 311.476 73.5759 357.364 78.9573C381.67 81.8121 399.116 95.0803 406.49 116.317C419.171 152.831 403.972 220.598 323.286 301.286C258.764 365.806 202.5 388.453 163.875 388.456ZM347.6 80.6046C302.502 80.6046 238.323 114.116 187.219 165.22C132.405 220.034 97.8252 289.895 103.136 335.108C105.89 358.532 118.639 375.335 139.037 382.418C184.118 398.075 255.838 365.623 321.733 299.733C387.624 233.843 420.076 162.131 404.418 117.037C397.332 96.6396 380.533 83.8905 357.107 81.1408C354.048 80.7805 350.874 80.6046 347.6 80.6046Z" fill="#231F20"/>
<path d="M167.28 366.193C159.743 366.193 152.686 365.181 146.209 363.104C127.862 357.217 116.395 343.466 113.049 323.336C106.263 282.494 137.389 218.101 188.742 166.742C240.103 115.385 304.527 84.25 345.339 91.0492C365.471 94.3952 379.22 105.862 385.105 124.213C398.236 165.146 368.813 229.496 310.155 288.154C260.78 337.531 207.359 366.193 167.28 366.193ZM333.474 92.3126C293.335 92.3126 236.56 122.032 190.295 168.295C139.41 219.184 108.536 282.79 115.22 322.976C118.416 342.241 129.367 355.394 146.882 361.011C187.026 373.887 250.514 344.684 308.602 286.601C366.685 228.518 395.894 165.041 383.016 124.882C377.397 107.367 364.244 96.4179 344.979 93.2156C341.328 92.6086 337.48 92.3126 333.474 92.3126Z" fill="#231F20"/>
<path d="M171.632 345.505C165.502 345.507 159.732 344.746 154.4 343.184C138.828 338.626 128.708 327.604 125.135 311.309C117.246 275.342 144.731 217.227 191.974 169.98C239.217 122.739 297.317 95.2524 333.304 103.141C349.596 106.715 360.621 116.834 365.177 132.408C375.772 168.605 349.523 225.09 298.304 276.309C254.63 319.983 207.121 345.503 171.632 345.505ZM320.525 104.038C285.344 104.038 234.455 130.606 193.527 171.533C147.527 217.536 119.666 276.123 127.28 310.838C130.669 326.3 140.261 336.756 155.017 341.076C190.429 351.448 246.085 325.42 296.751 274.757C347.413 224.095 373.443 168.461 363.07 133.024C358.751 118.269 348.297 108.677 332.832 105.286C329.005 104.447 324.883 104.038 320.525 104.038Z" fill="#231F20"/>
<path d="M176.596 326.175C171.731 326.175 167.133 325.626 162.847 324.498C149.712 321.043 140.858 312.322 137.233 299.277C128.71 268.56 153.17 215.616 195.398 173.388C237.626 131.162 290.562 106.685 321.285 115.23C334.33 118.85 343.051 127.704 346.509 140.837C354.835 172.478 331.701 221.437 287.572 265.566C249.423 303.719 207.658 326.175 176.596 326.175ZM307.747 115.714C277.139 115.714 233.152 138.74 196.951 174.941C155.246 216.643 131.022 268.689 139.352 298.689C142.754 310.938 151.072 319.13 163.409 322.375C194.278 330.506 242.435 307.601 286.019 264.013C329.607 220.425 352.515 172.296 344.385 141.397C341.138 129.062 332.949 120.744 320.702 117.345C316.742 116.246 312.397 115.714 307.747 115.714Z" fill="#231F20"/>
<path d="M182.095 308.034C178.359 308.034 174.811 307.657 171.478 306.882C160.509 304.337 152.852 297.552 149.338 287.266C140.394 261.096 161.285 214.724 199.005 177.002C236.725 139.285 283.08 118.406 309.265 127.333C319.556 130.851 326.338 138.508 328.886 149.477C335.205 176.708 315.154 218.441 277.799 255.796C245.017 288.578 208.859 308.034 182.095 308.034ZM295.58 127.443C269.426 127.443 232.032 147.083 200.558 178.555C163.396 215.715 142.732 261.135 151.415 286.553C154.675 296.087 161.783 302.378 171.971 304.744C198.507 310.9 239.415 291.073 276.246 254.243C313.078 217.411 332.901 176.483 326.745 149.972C324.382 139.78 318.089 132.672 308.553 129.414C304.666 128.084 300.303 127.443 295.58 127.443Z" fill="#231F20"/>
<path d="M188.093 290.896C185.351 290.896 182.735 290.653 180.251 290.158C171.225 288.356 164.722 283.2 161.436 275.242C152.462 253.483 169.865 213.77 202.819 180.817C235.773 147.861 275.475 130.455 297.245 139.438C305.199 142.719 310.359 149.225 312.161 158.25C316.738 181.19 299.742 215.969 268.856 246.853C241.311 274.395 210.67 290.896 188.093 290.896ZM284.397 139.33C262.567 139.33 230.806 155.938 204.372 182.369C172.538 214.201 154.954 253.768 163.469 274.406C166.459 281.651 172.409 286.353 180.68 288.004C202.922 292.436 236.914 275.686 267.303 245.3C297.683 214.92 314.443 180.919 310.003 158.679C308.356 150.409 303.65 144.457 296.405 141.467C292.904 140.023 288.859 139.33 284.397 139.33Z" fill="#231F20"/>
<path d="M194.57 274.651C192.683 274.651 190.868 274.51 189.131 274.22C181.881 273.017 176.493 269.22 173.555 263.24C165.095 246.021 179.415 212.332 206.869 184.875C234.323 157.421 268.002 143.1 285.234 151.561C291.214 154.502 295.01 159.888 296.216 167.142C299.322 185.879 285.363 213.951 260.654 238.66C238.236 261.081 213.042 274.651 194.57 274.651ZM273.352 151.276C255.712 151.276 230.167 164.686 208.422 186.428C181.602 213.252 167.459 245.856 175.528 262.271C178.175 267.665 182.876 270.956 189.491 272.054C207.602 275.063 234.877 261.329 259.101 237.107C283.325 212.883 297.044 185.562 294.045 167.5C292.951 160.883 289.657 156.184 284.265 153.535C281.159 152.008 277.47 151.276 273.352 151.276Z" fill="#231F20"/>
<path d="M201.495 259.147C200.316 259.147 199.175 259.074 198.068 258.931C192.457 258.197 188.172 255.529 185.671 251.22C178.026 238.025 188.982 211.347 211.165 189.167C233.343 166.991 260.021 156.028 273.216 163.675C277.527 166.172 280.195 170.459 280.929 176.072C282.842 190.677 271.916 212.275 253.097 231.097C235.698 248.494 215.922 259.145 201.495 259.147ZM263.096 163.454C249.519 163.454 229.555 173.884 212.717 190.72C191.569 211.868 180.527 237.958 187.571 250.117C189.746 253.869 193.375 256.102 198.355 256.754C212.301 258.564 233.184 247.9 251.544 229.544C269.9 211.188 280.577 190.31 278.75 176.358C278.098 171.375 275.867 167.748 272.118 165.575C269.638 164.138 266.575 163.454 263.096 163.454Z" fill="#231F20"/>
<path d="M208.849 244.314C208.223 244.314 207.609 244.286 207.013 244.228C202.942 243.842 199.755 242.107 197.786 239.207C191.441 229.857 199.154 210.309 215.725 193.738C232.292 177.167 251.837 169.46 261.197 175.8C264.092 177.767 265.83 180.959 266.216 185.025C267.215 195.559 259.318 210.901 246.101 224.116C233.635 236.582 219.277 244.314 208.849 244.314ZM253.033 175.768C243.463 175.768 229.41 183.159 217.278 195.291C201.698 210.871 193.933 229.619 199.605 237.974C201.213 240.348 203.774 241.716 207.219 242.042C217.158 242.99 231.778 235.335 244.548 222.563C257.323 209.792 264.967 195.141 264.028 185.233C263.702 181.791 262.334 179.228 259.961 177.619C258.112 176.364 255.753 175.768 253.033 175.768Z" fill="#231F20"/>
</mask>
<g mask="url(#mask0_1105_47635)">
<rect x="-20.3672" y="-97.229" width="669.718" height="660.4" fill="url(#paint0_radial_1105_47635)"/>
</g>
<defs>
<radialGradient id="paint0_radial_1105_47635" cx="0" cy="0" r="1" gradientUnits="userSpaceOnUse" gradientTransform="translate(285.79 232.389) rotate(114.678) scale(282.216 212.618)">
<stop stop-color="#F08119"/>
<stop offset="1" stop-color="#9536DF"/>
</radialGradient>
</defs>
</svg>
