<svg width="600" height="600" viewBox="0 0 600 600" fill="none" xmlns="http://www.w3.org/2000/svg">
<g clip-path="url(#clip0_1105_47553)">
<mask id="mask0_1105_47553" style="mask-type:alpha" maskUnits="userSpaceOnUse" x="-15" y="-8" width="710" height="710">
<g clip-path="url(#clip1_1105_47553)">
<path d="M201.688 299.1L242.799 256.331L284.161 216.071" stroke="black" stroke-width="0.986348" stroke-linecap="round" stroke-linejoin="round"/>
<path d="M45.243 571.477L85.7656 529.842L124.735 486.664L164.072 444.694L205.659 406.675L213.579 406.006L224.094 402.155L236.866 395.333L251.518 385.792L267.683 373.783L282.499 360.898L284.977 358.745L287.602 356.467L289.025 355.222" stroke="black" stroke-width="0.986348" stroke-linecap="round" stroke-linejoin="round"/>
<path d="M63.5336 572.955L101.794 530.392L138.229 486.517L174.846 444.138L213.578 406.004L235.612 389.9L256.281 374.803" stroke="black" stroke-width="0.986348" stroke-linecap="round" stroke-linejoin="round"/>
<path d="M35.668 561.358L77.0035 521.995L117.064 480.864L157.723 440.657L200.837 404.092L226.046 388.033L248.205 373.923L251.323 375.339L256.278 374.802L262.745 372.365L263.716 371.845L267.858 369.613L268.441 369.303L268.829 369.093L270.509 368.19L271.99 367.224L276.389 364.346L279.345 362.419L281.655 360.697L287.424 356.407L289.02 355.22L293.462 351.576L297.631 348.142L298.786 347.197" stroke="black" stroke-width="0.986348" stroke-linecap="round" stroke-linejoin="round"/>
<path d="M389.596 206.901L362.309 254.62L358.168 274.168L359.121 280.235" stroke="black" stroke-width="0.986348" stroke-linecap="round" stroke-linejoin="round"/>
<path d="M89.6447 565.458L124.221 523.452L156.776 480.381L189.399 439.037L224.089 402.154L244.611 386.344L260.13 374.383L262.745 372.366" stroke="black" stroke-width="0.986348" stroke-linecap="round" stroke-linejoin="round"/>
<path d="M41.2539 520.363L80.4614 488.417L118.872 454.404L158.326 420.879L200.656 390.471L247.693 365.913L267.046 362.595L268.874 357.671L271.983 351.76L276.3 345.009" stroke="black" stroke-width="0.986348" stroke-linecap="round" stroke-linejoin="round"/>
<path d="M122.86 549.235L152.407 509.34L179.823 468.544L207.286 429.642L236.863 395.332L256.188 379.743L268.074 370.155L270.51 368.191" stroke="black" stroke-width="0.986348" stroke-linecap="round" stroke-linejoin="round"/>
<path d="M98.8429 422.601L128.631 383.546L162.991 342.238L201.693 299.097L215.854 300.458L251.09 263.774L286.576 229.253L284.166 216.068L325.301 178.627L365.67 144.409" stroke="black" stroke-width="0.986348" stroke-linecap="round" stroke-linejoin="round"/>
<path d="M54.6133 491.719L91.2895 464.477L127.326 435.136L164.564 406.157L204.862 380.121L250.065 359.706L254.035 352.283L259.507 343.81L266.391 334.459L274.572 324.39" stroke="black" stroke-width="0.986348" stroke-linecap="round" stroke-linejoin="round"/>
<path d="M162.297 524.689L185.576 488.439L206.714 451.371L227.982 416.271L251.516 385.79L270.232 370.075L275.981 365.239L279.347 362.419" stroke="black" stroke-width="0.986348" stroke-linecap="round" stroke-linejoin="round"/>
<path d="M74.0158 458.878L107.384 436.802L128.246 406.043L153.477 372.763L182.755 337.441L215.859 300.464L229.133 300.454L243.515 301.164L266.396 277.306L289.477 254.866L312.378 234.127L334.722 215.361L356.111 198.894L376.108 185.079L398.436 151.931L421.078 120.106L441.668 87.7413" stroke="black" stroke-width="0.986348" stroke-linecap="round" stroke-linejoin="round"/>
<path d="M206.861 492.42L222.816 461.29L236.72 429.326L250.937 399.294L267.678 373.78L283.166 361.052L284.93 359.603" stroke="black" stroke-width="0.986348" stroke-linecap="round" stroke-linejoin="round"/>
<path d="M454.976 251.538L428.755 261.272L390.253 305.305L348.097 349.57L305.276 390.996L263.101 428.542L255.294 453.203" stroke="black" stroke-width="0.986348" stroke-linecap="round" stroke-linejoin="round"/>
<path d="M128.624 383.546L153.465 372.758L177.723 360.159L201.803 331.021L229.127 300.454L258.272 270.081L287.637 241.524L316.807 215.061L321.83 197.214L325.295 178.627" stroke="black" stroke-width="0.986348" stroke-linecap="round" stroke-linejoin="round"/>
<path d="M338.878 307.243L340.033 305.931L340.91 304.939L342.69 302.917L347.741 297.174L355.365 288.511L376.316 277.403L396.337 252.408L427.767 236.3L461.148 220.444L493.701 202.499L524.346 158.631L546.618 120.849L560.4 89.8773L565.708 66.2667L562.664 50.4005L551.444 42.5727L532.233 42.9774L496.918 83.5715L459.619 123.19L422.954 163.695L410.041 167.027L380.609 208.979L356.97 255.674L350.277 258.515L342.471 262.943L333.762 268.798L324.375 275.907L314.499 284.104L304.351 293.245L294.112 303.178L283.99 313.763L274.57 324.389L245.655 322.136L222.098 325.156L203.316 347.978L177.73 360.163L157.11 387.51L128.241 406.041L98.8429 422.605L74.0105 458.876L54.6116 491.718L41.2554 520.365L34.6559 543.924L35.6689 561.36L45.2396 571.476L63.5312 572.956L89.6462 565.459L122.86 549.235L162.296 524.69L206.863 492.423L255.295 453.206L306.148 408.019L305.277 390.998L302.778 372.833L301.177 356.194L302.845 343.56L305.958 340.552L312.511 334.199L319.205 327.714L320.985 325.987L325.532 321.22L331.58 314.888L337.35 308.845L337.487 308.698L338.878 307.243ZM338.878 307.243L352.773 304.19L370.729 304.326L401.628 269.082L427.767 236.3L448.818 206.665L486.999 183.721L524.346 158.631" stroke="black" stroke-width="0.986348" stroke-linecap="round" stroke-linejoin="round"/>
<path d="M381.839 337.741L382.201 338.502L382.558 339.247L390.924 356.959L391.533 358.145L398.714 372.152L398.987 372.635L399.59 373.49L408.284 386.699L408.745 387.412L409.155 387.958L414.795 395.562L419.449 401.77L419.464 402.846L419.621 403.045L430.388 416.815L430.067 418.048L429.426 419.518L428.476 421.193L427.226 423.041L425.693 425.025L423.902 427.12L421.944 429.184L419.944 431.11L417.954 432.859L416.006 434.397L414.148 435.7L412.431 436.734L410.877 437.469L409.56 437.874L408.499 437.927L407.775 437.602L394.577 427.281L394.415 427.014L381.773 417.533L380.194 416.489L379.254 415.927L365.915 407.05L365.379 406.578L363.705 405.723L350.858 399.135L349.683 398.526L348.407 397.986L331.944 390.207L331.173 389.845L330.396 389.478L328.984 388.812" stroke="black" stroke-width="0.986348" stroke-linecap="round" stroke-linejoin="round"/>
<path d="M162.992 342.243L182.75 337.439L201.81 331.025L222.099 325.156L243.51 301.163" stroke="black" stroke-width="0.986348" stroke-linecap="round" stroke-linejoin="round"/>
<path d="M356.976 255.671L353.942 274.929L355.96 285.106L355.975 285.185" stroke="black" stroke-width="0.986348" stroke-linecap="round" stroke-linejoin="round"/>
<path d="M335.478 285.231L342.616 302.723" stroke="black" stroke-width="0.986348" stroke-linecap="round" stroke-linejoin="round"/>
<path d="M408.289 386.697L408.751 387.41L408.756 388.717L408.32 390.297L408.456 390.476L419.096 404.235L419.222 404.392L430.073 418.046L430.183 418.188L440.545 431.984" stroke="black" stroke-width="0.986348" stroke-linecap="round" stroke-linejoin="round"/>
<path d="M419.033 401.048L419.447 401.588L419.977 402.265L429.998 415.227L430.366 415.804L430.602 416.586L430.528 417.006L430.717 417.258L440.796 430.97" stroke="black" stroke-width="0.986348" stroke-linecap="round" stroke-linejoin="round"/>
<path d="M430 415.223L430.368 415.8L430.567 416.136L430.787 416.43L439.916 428.993L440.771 430.174" stroke="black" stroke-width="0.986348" stroke-linecap="round" stroke-linejoin="round"/>
<path d="M398.715 372.15L398.988 372.633L399.271 373.116L399.56 373.562L407.718 385.942L408.746 387.505L409.156 387.957L419.03 401.044L419.45 401.768L419.675 402.057L419.691 402.608L419.092 404.235L418.346 405.905L417.249 407.821L415.81 409.931L414.056 412.199L411.998 414.593L409.756 416.961L407.467 419.166L405.183 421.167L402.962 422.936L400.836 424.433L398.878 425.625L397.119 426.471L395.613 426.949L394.432 427.164L393.602 426.661L380.195 416.487L379.255 415.926" stroke="black" stroke-width="0.986348" stroke-linecap="round" stroke-linejoin="round"/>
<path d="M427.47 446.51L414.152 435.702L400.839 424.437L387.453 413.339L373.893 403.024L360.049 394.116L343.309 383.907L335.836 379.322" stroke="black" stroke-width="0.986348" stroke-linecap="round" stroke-linejoin="round"/>
<path d="M428.997 445.447L416.005 434.397L402.959 422.938L389.862 411.615L376.712 400.995L363.508 391.614L347.603 380.78L339.82 375.455" stroke="black" stroke-width="0.986348" stroke-linecap="round" stroke-linejoin="round"/>
<path d="M430.603 444.184L417.956 432.861L405.184 421.17L392.402 409.595L379.693 398.608L367.161 388.681L352.148 377.112L344.355 371.083" stroke="black" stroke-width="0.986348" stroke-linecap="round" stroke-linejoin="round"/>
<path d="M432.244 442.749L419.945 431.111L407.467 419.169L395.004 407.305L382.757 395.908L370.914 385.356L356.819 372.963L349.273 366.32" stroke="black" stroke-width="0.986348" stroke-linecap="round" stroke-linejoin="round"/>
<path d="M287.426 356.406L271.985 351.76L254.034 352.28L211.635 367.824L204.86 380.118L200.658 390.47L199.249 398.575L155.937 432.537L115.289 469.868L75.4816 507.871L34.6562 543.921" stroke="black" stroke-width="0.986348" stroke-linecap="round" stroke-linejoin="round"/>
<path d="M348.621 277.128L352.034 290.643" stroke="black" stroke-width="0.986348" stroke-linecap="round" stroke-linejoin="round"/>
<path d="M341.178 304.511L342.611 302.721L347.547 296.578L349.59 294.042L352.141 291.071L352.95 290.136L356.2 286.361L369.453 270.968L380.973 254.966L412.584 229.705L424.877 209.751L433.06 192.942L474.766 159.19L479.417 142.293L478.444 130.462L471.843 124.008L459.619 123.188L442.553 127.995L421.923 137.785L398.43 151.927L372.706 169.844L345.327 191.042L316.814 215.063L312.373 234.123L310.802 256.431L294.259 271.379L277.584 287.571L261.066 304.813L245.655 322.134L232.187 338.572L203.316 347.976L187.317 369.306L174.32 388.83L140.196 412.659L127.324 435.133L118.873 454.404L115.289 469.868L117.065 480.864L124.732 486.661L138.226 486.516L156.777 480.38L179.823 468.542L206.713 451.37L236.721 429.327L269.035 402.942L302.778 372.83L337 339.7L370.729 304.324L390.254 305.305L408.683 304.611L454.977 251.538L493.701 202.497" stroke="black" stroke-width="0.986348" stroke-linecap="round" stroke-linejoin="round"/>
<path d="M349.587 294.038L352.034 290.636L355.967 285.181L356.502 284.436L359.149 281.244L359.264 281.107L361.496 278.424L362.446 277.275L363.796 275.652L380.971 254.962L389.782 240.798L395.759 228.766L433.057 192.937L437.019 179.635L436.696 170.146L478.441 130.458L521.346 91.1839L562.661 50.3937" stroke="black" stroke-width="0.986348" stroke-linecap="round" stroke-linejoin="round"/>
<path d="M356.505 284.443L359.126 280.238L361.279 276.794L361.725 276.075L361.846 275.88L362.177 275.224L363.794 272.012L365.528 268.547L367.355 266.142L380.114 249.363L395.762 228.773L398.814 219.13L437.022 179.642L479.417 142.295L523.239 105.157L565.709 66.2669" stroke="black" stroke-width="0.986348" stroke-linecap="round" stroke-linejoin="round"/>
<path d="M354.472 361.297L361.524 368.412L374.689 381.704L385.829 392.938L397.62 404.781L409.756 416.96L421.946 429.18L433.888 441.165" stroke="black" stroke-width="0.986348" stroke-linecap="round" stroke-linejoin="round"/>
<path d="M359.713 356.07L366.151 363.548L378.397 377.8L388.849 389.764L400.178 402.08L411.999 414.594L423.905 427.12L435.496 439.467" stroke="black" stroke-width="0.986348" stroke-linecap="round" stroke-linejoin="round"/>
<path d="M364.603 350.935L370.411 358.654L381.813 373.867L391.619 386.55L402.532 399.354L414.055 412.199L425.693 425.024L436.963 437.744" stroke="black" stroke-width="0.986348" stroke-linecap="round" stroke-linejoin="round"/>
<path d="M276.389 364.348L267.047 362.598" stroke="black" stroke-width="0.986348" stroke-linecap="round" stroke-linejoin="round"/>
<path d="M368.954 346.362L374.059 354.029L384.736 370.145L393.996 383.511L404.542 396.766L415.807 409.932L427.224 423.04L438.211 436.106" stroke="black" stroke-width="0.986348" stroke-linecap="round" stroke-linejoin="round"/>
<path d="M372.691 342.436L377.072 349.757L387.144 366.697L395.947 380.698L406.199 394.363L417.255 407.823L428.483 421.193L439.244 434.59" stroke="black" stroke-width="0.986348" stroke-linecap="round" stroke-linejoin="round"/>
<path d="M335.47 285.229L342.405 280.603L348.62 277.126L350.279 258.508L369.472 213.93L394.242 174.31L421.919 137.785L449.937 102.495L475.856 66.6063L506.377 51.3547L532.23 42.9751" stroke="black" stroke-width="0.986348" stroke-linecap="round" stroke-linejoin="round"/>
<path d="M320.984 325.986L327.15 331.039L337 339.702L348.098 349.571L357.838 358.04" stroke="black" stroke-width="0.986348" stroke-linecap="round" stroke-linejoin="round"/>
<path d="M375.734 339.245L379.38 345.916L377.069 349.758L374.065 354.032L370.416 358.657L366.153 363.55L361.527 368.417L356.823 372.964L352.15 377.112L347.609 380.782L343.309 383.907L339.351 386.406L335.834 388.213L332.862 389.253L330.527 389.469L328.989 388.813L327 387.864" stroke="black" stroke-width="0.986348" stroke-linecap="round" stroke-linejoin="round"/>
<path d="M432.026 164.752L436.702 170.153" stroke="black" stroke-width="0.986348" stroke-linecap="round" stroke-linejoin="round"/>
<path d="M378.03 336.831L380.968 342.583L381.162 342.955L390.248 360.893L390.657 361.638L398.463 375.944L398.61 376.164L408.316 390.302L407.454 392.192L406.194 394.365L404.545 396.769L402.534 399.358L400.176 402.082L397.62 404.786L395.005 407.307L392.401 409.596L389.865 411.617L387.45 413.34L385.219 414.71L383.224 415.687L381.518 416.239L380.169 416.328L376.936 414.198L365.916 407.053L365.218 406.596L364.326 406.135L350.76 399.195L349.59 398.539L346.898 397.212L332.014 390.172L331.258 389.816L330.524 389.469L327.055 387.807" stroke="black" stroke-width="0.986348" stroke-linecap="round" stroke-linejoin="round"/>
<path d="M365.525 268.541L367.48 262.599L367.633 258.195L368.972 256.216L383.113 235.348L398.846 212.123L436.697 170.147" stroke="black" stroke-width="0.986348" stroke-linecap="round" stroke-linejoin="round"/>
<path d="M348.625 277.126L353.937 274.931L358.173 274.169L361.029 274.923L361.716 276.052L361.726 276.073" stroke="black" stroke-width="0.986348" stroke-linecap="round" stroke-linejoin="round"/>
<path d="M337.494 308.695L338.755 307.267L340.603 305.167L341.186 304.51L342.666 302.841L347.733 297.123L355.378 288.503L356.386 287.253L369.46 270.968L396.345 252.405L412.591 229.704L448.825 206.662L464.538 180.791L474.774 159.189L518.155 125.516L523.247 105.154L521.356 91.1878L512.551 83.9051L496.926 83.5686L475.514 90.0468L449.948 102.494L421.08 120.102L389.67 142.141L372.713 169.843L356.113 198.89L342.273 231.211L333.769 268.795L335.481 285.228L327.984 290.868L320.109 297.389L312.002 304.666L303.838 312.589L295.768 321.037L288.27 329.521L281.759 337.554L276.309 345.009L259.513 343.806L220.806 353.885L187.324 369.306L157.117 387.507L140.203 412.659L107.386 436.797L91.2954 464.474L80.4705 488.417L75.4888 507.87L77.012 521.994L85.7698 529.839L101.799 530.39L124.23 523.45L152.415 509.338L185.583 488.438L222.826 461.29L263.109 428.542L269.043 402.942L275.553 379.115L301.185 356.192L327.158 331.037L352.78 304.187L376.324 277.4L401.636 269.079L428.764 261.271L461.156 220.441L487.007 183.718L506.059 151.874L518.155 125.516L560.408 89.8744" stroke="black" stroke-width="0.986348" stroke-linecap="round" stroke-linejoin="round"/>
<path d="M205.651 406.671L200.834 404.09L199.245 398.573" stroke="black" stroke-width="0.986348" stroke-linecap="round" stroke-linejoin="round"/>
<path d="M356.976 255.673L362.319 254.621L365.941 255.492L367.64 258.2L365.743 265.018L364.309 270.157L363.799 272.01" stroke="black" stroke-width="0.986348" stroke-linecap="round" stroke-linejoin="round"/>
<path d="M379.556 335.223L381.807 339.826L382.048 340.329L382.357 340.975L390.908 358.661L391.112 359.054L395.377 367.204L398.991 374.105L400.125 375.806L401.389 377.7L408.755 388.72L408.933 388.951L419.694 402.611L430.372 415.871L430.602 416.585L440.456 429.641L440.771 430.176L440.797 430.969L440.544 431.987L440.019 433.205L439.242 434.591L438.218 436.108L436.968 437.746L435.498 439.468L433.891 441.169L432.248 442.75L430.605 444.183L429.003 445.448L427.471 446.509L426.048 447.355L424.772 447.959L423.675 448.279L422.799 448.316L409.312 438.106L395.816 427.109L395.616 426.951L381.747 416.411L381.521 416.237L367.683 406.957L366.959 406.463L358.258 401.889L356.274 400.84L351.593 398.374L333.98 389.803L332.863 389.252L328.019 386.876" stroke="black" stroke-width="0.986348" stroke-linecap="round" stroke-linejoin="round"/>
<path d="M380.286 334.46L381.844 337.74L381.807 339.824L380.971 342.58L379.38 345.913L379.553 346.223L388.985 363.594L389.132 363.846L397.442 378.162L397.573 378.345L407.458 392.189L418.35 405.906L429.431 419.518L429.531 419.639L440.019 433.203" stroke="black" stroke-width="0.986348" stroke-linecap="round" stroke-linejoin="round"/>
<path d="M248.201 373.923L247.031 370.716L247.689 365.913L250.058 359.703" stroke="black" stroke-width="0.986348" stroke-linecap="round" stroke-linejoin="round"/>
<path d="M319.206 327.71L317.123 325.658L303.832 312.588L294.114 303.174L277.585 287.57L266.392 277.301L258.279 270.081L251.09 263.775L242.805 256.329" stroke="black" stroke-width="0.986348" stroke-linecap="round" stroke-linejoin="round"/>
<path d="M325.529 321.216L323.772 319.206L311.992 304.665L304.348 293.241L294.256 271.377L289.469 254.861L287.641 241.524L286.574 229.253L321.835 197.214L356.375 168.026L389.66 142.14L404.68 113.907" stroke="black" stroke-width="0.986348" stroke-linecap="round" stroke-linejoin="round"/>
<path d="M297.632 348.143L299.186 346.001L304.463 339.454L310.554 332.534L317.122 325.662L323.775 319.209L330.374 313.292L336.795 308.004L340.596 305.169" stroke="black" stroke-width="0.986348" stroke-linecap="round" stroke-linejoin="round"/>
<path d="M312.517 334.2L310.559 332.536L295.767 321.041L283.996 313.764L261.072 304.817L243.516 301.164" stroke="black" stroke-width="0.986348" stroke-linecap="round" stroke-linejoin="round"/>
<path d="M331.581 314.885L330.375 313.289L320.102 297.388L314.501 284.1L310.803 256.43L326.905 242.962L342.267 231.21L356.573 221.438L369.476 213.929L380.61 208.976L389.602 206.9L422.955 163.692L432.025 164.75L471.844 124.007L512.545 83.9047L551.445 42.5694" stroke="black" stroke-width="0.986348" stroke-linecap="round" stroke-linejoin="round"/>
<path d="M305.958 340.549L304.463 339.453L288.263 329.522L274.57 324.387" stroke="black" stroke-width="0.986348" stroke-linecap="round" stroke-linejoin="round"/>
<path d="M390.924 356.948L390.903 358.659L390.246 360.89L388.98 363.593L387.137 366.696L384.737 370.145L381.813 373.867L378.395 377.8L374.688 381.706L370.913 385.355L367.159 388.678L363.51 391.614L360.045 394.113L356.843 396.109L353.998 397.548L351.588 398.372L349.588 398.536L348.418 397.985" stroke="black" stroke-width="0.986348" stroke-linecap="round" stroke-linejoin="round"/>
<path d="M398.996 372.694L398.99 374.106L398.465 375.943L397.441 378.164L395.944 380.7L394.001 383.514L391.622 386.553L388.85 389.766L385.831 392.943L382.76 395.909L379.694 398.608L376.717 400.997L373.892 403.024L371.278 404.642L368.942 405.802L366.958 406.464L365.22 406.596L364.328 406.134" stroke="black" stroke-width="0.986348" stroke-linecap="round" stroke-linejoin="round"/>
<path d="M268.835 369.096L267.591 368.934L267.014 369.081L256.505 371.793L248.211 373.926" stroke="black" stroke-width="0.986348" stroke-linecap="round" stroke-linejoin="round"/>
<path d="M337.345 308.845L336.789 308.006L327.971 290.871L324.37 275.908L326.899 242.966L334.712 215.36L345.322 191.045L356.372 168.031L365.665 144.413L404.678 113.912L441.658 87.7405L475.855 66.6092" stroke="black" stroke-width="0.986348" stroke-linecap="round" stroke-linejoin="round"/>
<path d="M268.442 369.303L267.586 368.931L266.589 366.4L267.048 362.594" stroke="black" stroke-width="0.986348" stroke-linecap="round" stroke-linejoin="round"/>
<path d="M422.793 448.313L422.184 448.04L408.891 438.413L407.773 437.6" stroke="black" stroke-width="0.986348" stroke-linecap="round" stroke-linejoin="round"/>
<path d="M408.685 304.612L380.285 334.46L379.555 335.221L378.033 336.828L375.733 339.243L372.688 342.435L368.96 346.362L364.607 350.935L359.714 356.07L357.84 358.039L354.474 361.299L349.276 366.319L344.357 371.081L339.826 375.455L335.836 379.319L332.475 382.564L329.845 385.11L328.018 386.874L327.057 387.803L326.999 387.861L306.15 408.018" stroke="black" stroke-width="0.986348" stroke-linecap="round" stroke-linejoin="round"/>
<path d="M367.486 262.601L369.046 260.433L371.629 256.852L383.098 240.935L398.819 219.127L398.853 212.125L395.804 207.974L389.606 206.9" stroke="black" stroke-width="0.986348" stroke-linecap="round" stroke-linejoin="round"/>
<path d="M361.842 275.879L363.175 274.209L364.015 273.159L374.176 260.396L389.781 240.803L424.873 209.751L464.526 180.792L506.047 151.875L546.614 120.848" stroke="black" stroke-width="0.986348" stroke-linecap="round" stroke-linejoin="round"/>
<path d="M347.547 296.582L347.505 296.456L342.408 280.606L342.471 262.944L356.571 221.443L376.102 185.079L394.245 174.313L410.041 167.028L442.553 127.999L475.506 90.051L506.385 51.3529" stroke="black" stroke-width="0.986348" stroke-linecap="round" stroke-linejoin="round"/>
<path d="M293.466 351.579L293.293 351.511L276.305 345.013" stroke="black" stroke-width="0.986348" stroke-linecap="round" stroke-linejoin="round"/>
<path d="M423.674 448.278L409.742 438.01L409.311 438.105L408.503 437.926L394.707 427.239" stroke="black" stroke-width="0.986348" stroke-linecap="round" stroke-linejoin="round"/>
<path d="M424.766 447.954L411.023 437.571L410.876 437.466L397.274 426.595L397.117 426.469L383.394 415.813L383.221 415.681L369.152 405.949L368.937 405.797L353.996 397.545L336.19 388.391L335.828 388.208L329.84 385.107" stroke="black" stroke-width="0.986348" stroke-linecap="round" stroke-linejoin="round"/>
<path d="M426.048 447.354L412.546 436.824L412.436 436.735L398.882 425.627L385.222 414.708L371.279 404.64L357.089 396.246L356.853 396.115L339.64 386.568L339.351 386.405L332.477 382.565" stroke="black" stroke-width="0.986348" stroke-linecap="round" stroke-linejoin="round"/>
<path d="M281.655 360.695L281.45 360.648L268.875 357.67L250.062 359.702" stroke="black" stroke-width="0.986348" stroke-linecap="round" stroke-linejoin="round"/>
<path d="M271.988 367.222L271.752 367.186L266.587 366.4L247.034 370.715L199.246 398.574" stroke="black" stroke-width="0.986348" stroke-linecap="round" stroke-linejoin="round"/>
<path d="M361.277 276.794L361.256 276.626L361.025 274.925L361.204 274.243L363.832 263.807L365.934 255.493L380.18 232.83L395.798 207.977L432.022 164.753" stroke="black" stroke-width="0.986348" stroke-linecap="round" stroke-linejoin="round"/>
<path d="M302.846 343.561L299.732 346.349L298.787 347.199L297.459 348.391L293.768 351.694L284.932 359.606L275.546 379.119L250.939 399.297L227.981 416.273L207.287 429.643L189.401 439.038L174.845 444.139L164.069 444.694L157.724 440.659L155.937 432.54L158.329 420.882L164.563 406.157L174.321 388.833L211.635 367.827L220.799 353.889L232.188 338.574L266.39 334.46L281.752 337.557L299.186 346.002L299.732 346.349" stroke="black" stroke-width="0.986348" stroke-linecap="round" stroke-linejoin="round"/>
<path d="M263.718 371.844L263.256 371.97L258.191 373.405L251.325 375.338L245.644 379.234L229.548 390.283L205.656 406.671" stroke="black" stroke-width="0.986348" stroke-linecap="round" stroke-linejoin="round"/>
</g>
</mask>
<g mask="url(#mask0_1105_47553)">
<rect x="-138.012" y="451.402" width="826.114" height="474.794" transform="rotate(-45 -138.012 451.402)" fill="url(#paint0_radial_1105_47553)"/>
</g>
</g>
<defs>
<radialGradient id="paint0_radial_1105_47553" cx="0" cy="0" r="1" gradientUnits="userSpaceOnUse" gradientTransform="translate(275.656 677.203) rotate(90) scale(121.445 208.199)">
<stop stop-color="#F08119"/>
<stop offset="1" stop-color="#9536DF"/>
</radialGradient>
<clipPath id="clip0_1105_47553">
<rect width="600" height="600" fill="white"/>
</clipPath>
<clipPath id="clip1_1105_47553">
<rect width="735.815" height="267.3" fill="white" transform="translate(-14.6016 512.686) rotate(-45)"/>
</clipPath>
</defs>
</svg>
